<svg xmlns="http://www.w3.org/2000/svg" width="200" height="200" viewBox="0 0 200 200"><defs><linearGradient id="bgGradient" x1="0%" x2="100%" y1="0%" y2="100%"><stop offset="0%" style="stop-color:#006d5b;stop-opacity:1"/><stop offset="100%" style="stop-color:#004d40;stop-opacity:1"/></linearGradient><linearGradient id="handGradient" x1="0%" x2="0%" y1="0%" y2="100%"><stop offset="0%" style="stop-color:#fdf6e3;stop-opacity:1"/><stop offset="100%" style="stop-color:beige;stop-opacity:1"/></linearGradient><linearGradient id="heartGradient" x1="0%" x2="100%" y1="0%" y2="100%"><stop offset="0%" style="stop-color:#c9a227;stop-opacity:1"/><stop offset="100%" style="stop-color:#d4af37;stop-opacity:1"/></linearGradient></defs><circle cx="100" cy="100" r="95" fill="url(#bgGradient)" stroke="#C9A227" stroke-width="3"/><circle cx="100" cy="100" r="85" fill="none" stroke="#C9A227" stroke-dasharray="10 5" stroke-width="1" opacity=".3"/><path fill="url(#handGradient)" stroke="#C9A227" stroke-width="2" d="M60 140 L60 80 Q60 60 80 60 L100 60 Q120 60 120 80 L120 100 Q120 110 110 110 L70 110 Q60 110 60 100 Z"/><rect width="12" height="40" x="65" y="45" fill="url(#handGradient)" stroke="#C9A227" stroke-width="1.5" rx="6"/><rect width="12" height="45" x="80" y="40" fill="url(#handGradient)" stroke="#C9A227" stroke-width="1.5" rx="6"/><rect width="12" height="43" x="95" y="42" fill="url(#handGradient)" stroke="#C9A227" stroke-width="1.5" rx="6"/><rect width="12" height="35" x="110" y="50" fill="url(#handGradient)" stroke="#C9A227" stroke-width="1.5" rx="6"/><ellipse cx="55" cy="85" fill="url(#handGradient)" stroke="#C9A227" stroke-width="1.5" rx="10" ry="15"/><path fill="url(#heartGradient)" stroke="#006D5B" stroke-width="1.5" d="M75 125 C75 115 85 115 90 120 C95 115 105 115 105 125 C105 135 90 145 90 145 C90 145 75 135 75 125"/><rect width="30" height="40" x="55" y="130" fill="url(#handGradient)" stroke="#C9A227" stroke-width="2" rx="5"/><circle cx="140" cy="60" r="3" fill="#C9A227" opacity=".6"/><circle cx="150" cy="80" r="2" fill="#C9A227" opacity=".4"/><circle cx="145" cy="100" r="2.5" fill="#C9A227" opacity=".5"/><circle cx="155" cy="120" r="2" fill="#C9A227" opacity=".4"/><circle cx="140" cy="140" r="3" fill="#C9A227" opacity=".6"/></svg>